<?xml version="1.0" encoding="utf-8"?>
<!-- Generator: Adobe Illustrator 16.0.2, SVG Export Plug-In . SVG Version: 6.00 Build 0)  -->
<!DOCTYPE svg PUBLIC "-//W3C//DTD SVG 1.1//EN" "http://www.w3.org/Graphics/SVG/1.1/DTD/svg11.dtd">
<svg version="1.1" id="圖層_1" xmlns="http://www.w3.org/2000/svg" xmlns:xlink="http://www.w3.org/1999/xlink" x="0px" y="0px"
	 width="566.93px" height="566.93px" viewBox="0 0 566.93 566.93" enable-background="new 0 0 566.93 566.93" xml:space="preserve">
<circle fill="#FFFFFF" cx="283.465" cy="283.465" r="216.851"/>
<g>
	<g>
		
			<line fill="none" stroke="#5799B6" stroke-width="5" stroke-miterlimit="10" x1="794.212" y1="84.174" x2="842.227" y2="190.915"/>
		
			<line fill="none" stroke="#5799B6" stroke-width="5" stroke-miterlimit="10" x1="763.985" y1="97.774" x2="812.002" y2="204.514"/>
		
			<line fill="none" stroke="#5799B6" stroke-width="5" stroke-miterlimit="10" x1="733.756" y1="111.37" x2="781.775" y2="218.111"/>
	</g>
	<path fill="#579AB6" stroke="#FFFFFF" stroke-width="2" stroke-miterlimit="10" d="M990.186,160.892
		c11.158-5.015,20.188-11.626,27.547-19.344c12.475-12.546,21.146-28.265,24.953-45.424c1.644-5.348,3.033-10.795,4.236-16.25
		c-0.911-0.574-1.819-1.145-2.73-1.706c-6.685-4.107-13.555-8.688-20.195-13.117c-3.567-2.375-7.029-4.664-10.399-6.851
		c-1.644,9.802-3.634,19.341-6.438,28.144l-0.035-0.013c-0.021,0.119-0.052,0.229-0.071,0.341
		c-4.268,13.273-10.412,24.844-20.022,33.06c-4.033,3.282-8.493,6.013-13.253,8.112c-1.597,0.662-3.197,1.253-4.809,1.743
		l0.046,0.101c-6.736,2.266-13.941,3.287-21.288,2.787c-14.82-1.023-27.688-9.12-42.596-18.5c-2.39-1.505-4.786-3.011-7.188-4.489
		c-2.173-1.336-4.391-2.749-6.631-4.196c-3.956-2.552-8.015-5.247-12.233-8.059c-10.307-6.874-21.333-14.223-32.974-20.721
		c-29.376-16.383-62.665-27.305-98.265-11.285c-35.151,15.81-49.44,47.804-56.918,80.965c6.415,4.014,12.828,8.307,19.572,12.841
		c4.681,3.148,9.221,6.164,13.637,9.012c5.184-30.471,13.946-58.046,38.814-69.237c25.132-11.306,51.375,0.801,77.266,17.02
		c6.175,3.865,12.324,7.965,18.438,12.041c6.902,4.595,13.422,8.946,20.003,12.99c2.147,1.321,4.278,2.658,6.408,4
		c0.152,0.093,0.302,0.189,0.454,0.283c16.694,10.507,35.623,22.419,59.688,24.071c14.323,0.982,28.599-1.448,41.775-6.953
		C988.05,161.824,989.116,161.374,990.186,160.892z"/>
	<g>
		
			<line fill="none" stroke="#5799B6" stroke-width="5" stroke-miterlimit="10" x1="629.509" y1="156.784" x2="677.523" y2="263.52"/>
		
			<line fill="none" stroke="#5799B6" stroke-width="5" stroke-miterlimit="10" x1="599.282" y1="170.381" x2="647.299" y2="277.119"/>
		
			<line fill="none" stroke="#5799B6" stroke-width="5" stroke-miterlimit="10" x1="569.053" y1="183.975" x2="617.073" y2="290.719"/>
	</g>
	<path fill="#579AB6" stroke="#FFFFFF" stroke-width="2" stroke-miterlimit="10" d="M825.482,233.499
		c11.158-5.02,20.188-11.626,27.548-19.349c12.474-12.541,21.146-28.26,24.954-45.419c1.642-5.354,3.031-10.795,4.234-16.254
		c-0.911-0.569-1.819-1.145-2.73-1.706c-6.685-4.108-13.555-8.683-20.195-13.112c-3.567-2.375-7.029-4.668-10.399-6.851
		c-1.644,9.802-3.634,19.336-6.438,28.138l-0.035-0.007c-0.021,0.113-0.052,0.225-0.071,0.336
		c-4.268,13.273-10.412,24.847-20.022,33.065c-4.033,3.276-8.493,6.013-13.253,8.107c-1.597,0.662-3.197,1.258-4.809,1.743
		l0.046,0.101c-6.736,2.266-13.941,3.29-21.288,2.787c-14.82-1.018-27.688-9.12-42.596-18.5c-2.39-1.506-4.786-3.006-7.188-4.484
		c-2.173-1.341-4.391-2.751-6.631-4.196c-3.956-2.557-8.015-5.252-12.233-8.064c-10.307-6.875-21.333-14.224-32.974-20.716
		c-29.376-16.383-62.665-27.305-98.265-11.29c-35.151,15.815-49.44,47.806-56.918,80.964c6.415,4.02,12.828,8.307,19.572,12.842
		c4.681,3.153,9.221,6.169,13.637,9.016c5.184-30.475,13.946-58.045,38.814-69.237c25.132-11.306,51.375,0.795,77.266,17.02
		c6.175,3.86,12.324,7.965,18.438,12.035c6.902,4.601,13.422,8.946,20.003,12.996c2.147,1.316,4.278,2.655,6.408,4
		c0.152,0.093,0.302,0.189,0.454,0.283c16.694,10.507,35.623,22.419,59.688,24.071c14.323,0.982,28.599-1.453,41.775-6.955
		C823.347,234.429,824.413,233.982,825.482,233.499z"/>
	<g>
		
			<line fill="none" stroke="#5799B6" stroke-width="5" stroke-miterlimit="10" x1="460.899" y1="228.924" x2="508.916" y2="335.664"/>
		
			<line fill="none" stroke="#5799B6" stroke-width="5" stroke-miterlimit="10" x1="430.673" y1="242.521" x2="478.689" y2="349.264"/>
		
			<line fill="none" stroke="#5799B6" stroke-width="5" stroke-miterlimit="10" x1="400.441" y1="256.12" x2="448.463" y2="362.859"/>
	</g>
	<g>
		<line fill="none" stroke="#5799B6" stroke-width="5" stroke-miterlimit="10" x1="300.064" y1="301.28" x2="348.08" y2="408.015"/>
		
			<line fill="none" stroke="#5799B6" stroke-width="5" stroke-miterlimit="10" x1="269.84" y1="314.875" x2="317.857" y2="421.614"/>
		
			<line fill="none" stroke="#5799B6" stroke-width="5" stroke-miterlimit="10" x1="239.614" y1="328.47" x2="287.631" y2="435.211"/>
	</g>
	<g>
		
			<line fill="none" stroke="#5799B6" stroke-width="5" stroke-miterlimit="10" x1="130.748" y1="361.76" x2="178.768" y2="468.498"/>
		
			<line fill="none" stroke="#5799B6" stroke-width="5" stroke-miterlimit="10" x1="100.521" y1="375.354" x2="148.541" y2="482.096"/>
		
			<line fill="none" stroke="#5799B6" stroke-width="5" stroke-miterlimit="10" x1="70.295" y1="388.953" x2="118.314" y2="495.692"/>
	</g>
	<path fill="#579AB6" stroke="#FFFFFF" stroke-width="3" stroke-miterlimit="10" d="M325.781,446.59
		c11.16-5.02,20.188-11.629,27.547-19.35c12.476-12.543,21.145-28.26,24.959-45.422c1.637-5.351,3.031-10.792,4.232-16.254
		c-0.914-0.566-1.816-1.143-2.732-1.703c-6.685-4.107-13.551-8.684-20.197-13.119c-3.562-2.375-7.025-4.664-10.399-6.844
		c-1.638,9.799-3.632,19.336-6.437,28.136l-0.033-0.005c-0.021,0.111-0.049,0.223-0.07,0.334
		c-4.266,13.275-10.409,24.844-20.025,33.066c-4.031,3.274-8.49,6.012-13.256,8.105c-1.596,0.664-3.197,1.258-4.807,1.746l0.047,0.1
		c-6.736,2.268-13.939,3.291-21.289,2.785c-14.818-1.023-27.691-9.118-42.592-18.501c-2.394-1.503-4.786-3.009-7.192-4.484
		c-2.173-1.339-4.387-2.751-6.63-4.196c-3.955-2.555-8.011-5.25-12.231-8.064c-10.309-6.874-21.335-14.221-32.977-20.713
		c-29.375-16.387-62.666-27.311-98.264-11.291c-35.152,15.813-49.442,47.807-56.919,80.963c6.418,4.014,12.826,8.309,19.573,12.844
		c4.68,3.148,9.22,6.166,13.638,9.016c5.188-30.477,13.949-58.05,38.819-69.236c25.127-11.306,51.375,0.795,77.265,17.012
		c6.173,3.869,12.325,7.967,18.435,12.043c6.902,4.6,13.418,8.947,20.005,12.994c2.145,1.318,4.274,2.654,6.408,4.002
		c0.15,0.094,0.303,0.188,0.451,0.275c16.698,10.512,35.623,22.418,59.687,24.078c14.327,0.982,28.597-1.455,41.774-6.955
		C323.642,447.52,324.713,447.067,325.781,446.59z"/>
	<g>
		
			<line fill="none" stroke="#5799B6" stroke-width="5" stroke-miterlimit="10" x1="-35.792" y1="437.149" x2="12.226" y2="543.887"/>
		
			<line fill="none" stroke="#5799B6" stroke-width="5" stroke-miterlimit="10" x1="-66.018" y1="450.746" x2="-18.001" y2="557.487"/>
		
			<line fill="none" stroke="#5799B6" stroke-width="5" stroke-miterlimit="10" x1="-96.245" y1="464.342" x2="-48.228" y2="571.086"/>
	</g>
	<path fill="#579AB6" stroke="#FFFFFF" stroke-width="3" stroke-miterlimit="10" d="M-10.077,582.459
		c11.16-5.014,20.189-11.629,27.546-19.344c12.478-12.549,21.147-28.266,24.959-45.426c1.639-5.346,3.033-10.793,4.233-16.256
		c-0.914-0.564-1.817-1.137-2.732-1.697c-6.685-4.107-13.55-8.688-20.197-13.119c-3.563-2.375-7.026-4.664-10.4-6.85
		c-1.637,9.801-3.632,19.342-6.436,28.137l-0.034-0.006c-0.02,0.111-0.049,0.223-0.069,0.34
		c-4.266,13.275-10.41,24.844-20.026,33.063c-4.03,3.279-8.49,6.01-13.254,8.104c-1.597,0.67-3.199,1.258-4.808,1.752l0.046,0.1
		c-6.736,2.268-13.938,3.287-21.288,2.779c-14.818-1.018-27.691-9.111-42.592-18.494c-2.393-1.504-4.786-3.01-7.191-4.49
		c-2.174-1.334-4.388-2.748-6.63-4.197c-3.956-2.549-8.012-5.244-12.231-8.063c-10.31-6.869-21.335-14.217-32.977-20.715
		c-29.375-16.385-62.667-27.305-98.265-11.285c-35.152,15.809-49.442,47.805-56.919,80.963c6.419,4.014,12.826,8.309,19.574,12.844
		c4.679,3.145,9.22,6.164,13.635,9.012c5.188-30.473,13.949-58.045,38.818-69.238c25.127-11.305,51.375,0.799,77.265,17.018
		c6.173,3.869,12.325,7.967,18.435,12.043c6.902,4.594,13.419,8.947,20.006,12.988c2.144,1.318,4.273,2.66,6.407,4.002
		c0.15,0.094,0.303,0.188,0.451,0.281c16.699,10.51,35.623,22.418,59.686,24.072c14.327,0.984,28.597-1.449,41.775-6.951
		C-12.214,583.393-11.146,582.942-10.077,582.459z"/>
	<path fill="#579AB6" stroke="#FFFFFF" stroke-width="3" stroke-miterlimit="10" d="M165.336,518.762
		c11.158-5.012,20.188-11.625,27.546-19.344c12.477-12.545,21.146-28.258,24.957-45.424c1.64-5.346,3.032-10.793,4.232-16.25
		c-0.91-0.572-1.815-1.145-2.729-1.701c-6.685-4.111-13.554-8.691-20.197-13.121c-3.563-2.373-7.023-4.662-10.4-6.844
		c-1.637,9.795-3.632,19.338-6.436,28.137l-0.034-0.006c-0.02,0.111-0.049,0.223-0.069,0.334
		c-4.268,13.275-10.412,24.844-20.026,33.061c-4.031,3.281-8.49,6.012-13.256,8.111c-1.595,0.662-3.197,1.254-4.806,1.744l0.046,0.1
		c-6.734,2.268-13.939,3.287-21.288,2.787c-14.818-1.023-27.691-9.117-42.592-18.5c-2.394-1.506-4.786-3.012-7.192-4.49
		c-2.17-1.336-4.387-2.748-6.628-4.195c-3.955-2.553-8.011-5.248-12.231-8.059c-10.309-6.875-21.335-14.225-32.977-20.723
		c-29.375-16.383-62.666-27.302-98.264-11.281c-35.149,15.807-49.442,47.801-56.919,80.961c6.416,4.016,12.826,8.307,19.57,12.844
		c4.683,3.146,9.22,6.162,13.639,9.012c5.188-30.473,13.949-58.047,38.819-69.238c25.127-11.305,51.375,0.801,77.265,17.02
		c6.173,3.867,12.325,7.965,18.435,12.041c6.902,4.594,13.419,8.945,20.005,12.99c2.145,1.324,4.277,2.66,6.408,4.002
		c0.153,0.092,0.303,0.186,0.454,0.279c16.695,10.512,35.62,22.42,59.687,24.074c14.324,0.984,28.597-1.451,41.772-6.953
		C163.199,519.696,164.268,519.248,165.336,518.762z"/>
	<path fill="#579AB6" stroke="#FFFFFF" stroke-width="3" stroke-miterlimit="10" d="M494.908,378.499
		c11.162-5.021,20.19-11.628,27.549-19.349c12.479-12.544,21.146-28.26,24.959-45.422c1.637-5.352,3.031-10.793,4.235-16.252
		c-0.911-0.568-1.819-1.14-2.735-1.705c-6.685-4.107-13.551-8.684-20.196-13.112c-3.563-2.377-7.023-4.664-10.4-6.851
		c-1.637,9.799-3.631,19.342-6.431,28.135l-0.036-0.004c-0.021,0.113-0.052,0.222-0.069,0.336
		c-4.269,13.277-10.412,24.846-20.027,33.064c-4.033,3.279-8.492,6.01-13.258,8.104c-1.596,0.665-3.197,1.261-4.804,1.751
		l0.047,0.096c-6.737,2.266-13.942,3.289-21.288,2.784c-14.821-1.019-27.694-9.112-42.595-18.493
		c-2.392-1.506-4.786-3.012-7.19-4.492c-2.172-1.334-4.389-2.748-6.63-4.195c-3.955-2.555-8.014-5.25-12.233-8.064
		c-10.307-6.867-21.336-14.221-32.973-20.714c-29.377-16.383-62.668-27.305-98.266-11.29c-35.152,15.813-49.442,47.807-56.919,80.97
		c6.416,4.012,12.826,8.304,19.573,12.841c4.68,3.146,9.22,6.164,13.638,9.012c5.188-30.471,13.949-58.045,38.819-69.236
		c25.127-11.307,51.375,0.795,77.265,17.02c6.176,3.865,12.325,7.965,18.438,12.041c6.901,4.595,13.419,8.945,20.003,12.99
		c2.146,1.316,4.273,2.658,6.407,3.999c0.153,0.093,0.304,0.187,0.451,0.282c16.699,10.508,35.623,22.417,59.687,24.072
		c14.324,0.982,28.6-1.451,41.774-6.953C492.771,379.434,493.842,378.979,494.908,378.499z"/>
	<path fill="#579AB6" stroke="#FFFFFF" stroke-width="2" stroke-miterlimit="10" d="M656.874,305.639
		c11.157-5.02,20.186-11.626,27.546-19.344c12.476-12.546,21.146-28.265,24.954-45.424c1.644-5.354,3.031-10.795,4.235-16.255
		c-0.911-0.568-1.819-1.139-2.729-1.7c-6.685-4.113-13.557-8.688-20.197-13.117c-3.567-2.375-7.028-4.664-10.399-6.852
		c-1.643,9.802-3.632,19.342-6.436,28.139l-0.037-0.008c-0.021,0.114-0.052,0.225-0.069,0.336
		c-4.269,13.279-10.412,24.847-20.024,33.065c-4.033,3.281-8.492,6.013-13.253,8.107c-1.596,0.667-3.197,1.258-4.809,1.748
		l0.047,0.096c-6.737,2.271-13.942,3.289-21.289,2.787c-14.82-1.018-27.688-9.115-42.594-18.496
		c-2.392-1.506-4.786-3.011-7.19-4.489c-2.173-1.336-4.39-2.749-6.63-4.196c-3.955-2.557-8.014-5.252-12.234-8.064
		c-10.306-6.87-21.331-14.224-32.973-20.716c-29.379-16.383-62.665-27.305-98.268-11.29c-35.151,15.815-49.439,47.806-56.919,80.969
		c6.416,4.015,12.826,8.307,19.573,12.842c4.681,3.147,9.22,6.164,13.636,9.012c5.186-30.471,13.947-58.046,38.816-69.238
		c25.133-11.305,51.375,0.796,77.268,17.02c6.176,3.866,12.324,7.966,18.438,12.041c6.901,4.596,13.421,8.946,20.002,12.991
		c2.147,1.316,4.279,2.657,6.408,3.999c0.152,0.094,0.303,0.189,0.456,0.283c16.692,10.508,35.623,22.419,59.687,24.071
		c14.324,0.982,28.6-1.448,41.774-6.952C654.736,306.574,655.803,306.119,656.874,305.639z"/>
</g>
<g>
	<g>
		
			<line fill="none" stroke="#5799B6" stroke-width="5" stroke-miterlimit="10" x1="625.929" y1="-42.273" x2="673.943" y2="64.468"/>
		
			<line fill="none" stroke="#5799B6" stroke-width="5" stroke-miterlimit="10" x1="595.702" y1="-28.674" x2="643.719" y2="78.067"/>
		
			<line fill="none" stroke="#5799B6" stroke-width="5" stroke-miterlimit="10" x1="565.473" y1="-15.077" x2="613.492" y2="91.664"/>
	</g>
	<path fill="#579AB6" stroke="#FFFFFF" stroke-width="2" stroke-miterlimit="10" d="M821.902,34.445
		c11.158-5.015,20.188-11.626,27.547-19.344c12.475-12.546,21.146-28.265,24.953-45.424c1.644-5.348,3.033-10.795,4.236-16.25
		c-0.911-0.574-1.819-1.145-2.73-1.706c-6.685-4.107-13.555-8.688-20.195-13.117c-3.567-2.375-7.029-4.664-10.399-6.851
		c-1.644,9.802-3.634,19.341-6.438,28.144l-0.035-0.013c-0.021,0.119-0.052,0.229-0.071,0.341
		c-4.268,13.273-10.412,24.844-20.022,33.06c-4.033,3.282-8.493,6.013-13.253,8.112c-1.597,0.662-3.197,1.253-4.809,1.743
		l0.046,0.101c-6.736,2.266-13.941,3.287-21.288,2.787c-14.82-1.023-27.688-9.12-42.596-18.5c-2.39-1.505-4.786-3.011-7.188-4.489
		c-2.173-1.336-4.391-2.749-6.631-4.196c-3.956-2.552-8.015-5.247-12.233-8.059c-10.307-6.874-21.333-14.223-32.974-20.721
		c-29.376-16.383-62.665-27.305-98.265-11.285c-35.151,15.81-49.44,47.804-56.918,80.965c6.415,4.014,12.828,8.307,19.572,12.841
		c4.681,3.148,9.221,6.164,13.637,9.012c5.184-30.471,13.946-58.046,38.814-69.237c25.132-11.306,51.375,0.801,77.266,17.02
		c6.175,3.865,12.324,7.965,18.438,12.041c6.902,4.595,13.422,8.946,20.003,12.99c2.147,1.321,4.278,2.658,6.408,4
		c0.152,0.093,0.302,0.189,0.454,0.283c16.694,10.507,35.623,22.419,59.688,24.071c14.323,0.982,28.599-1.448,41.775-6.953
		C819.767,35.377,820.833,34.927,821.902,34.445z"/>
	<g>
		<line fill="none" stroke="#5799B6" stroke-width="5" stroke-miterlimit="10" x1="461.226" y1="30.337" x2="509.24" y2="137.073"/>
		
			<line fill="none" stroke="#5799B6" stroke-width="5" stroke-miterlimit="10" x1="430.999" y1="43.933" x2="479.016" y2="150.672"/>
		<line fill="none" stroke="#5799B6" stroke-width="5" stroke-miterlimit="10" x1="400.77" y1="57.528" x2="448.79" y2="164.272"/>
	</g>
	<path fill="#579AB6" stroke="#FFFFFF" stroke-width="2" stroke-miterlimit="10" d="M657.199,107.052
		c11.158-5.02,20.188-11.626,27.548-19.349c12.474-12.541,21.146-28.26,24.954-45.419c1.642-5.354,3.031-10.795,4.234-16.254
		c-0.911-0.569-1.819-1.145-2.73-1.706c-6.685-4.108-13.555-8.683-20.195-13.112c-3.567-2.375-7.029-4.668-10.399-6.851
		c-1.644,9.802-3.634,19.336-6.438,28.138l-0.035-0.007c-0.021,0.113-0.052,0.225-0.071,0.336
		c-4.268,13.273-10.412,24.847-20.022,33.065c-4.033,3.276-8.493,6.013-13.253,8.107c-1.597,0.662-3.197,1.258-4.809,1.743
		l0.046,0.101c-6.736,2.266-13.941,3.29-21.288,2.787c-14.82-1.018-27.688-9.12-42.596-18.5c-2.39-1.506-4.786-3.006-7.188-4.484
		c-2.173-1.341-4.391-2.751-6.631-4.196c-3.956-2.557-8.015-5.252-12.233-8.064c-10.307-6.875-21.333-14.224-32.974-20.716
		c-29.376-16.383-62.665-27.305-98.265-11.29c-35.151,15.815-49.44,47.806-56.918,80.964c6.415,4.02,12.828,8.307,19.572,12.842
		c4.681,3.153,9.221,6.169,13.637,9.016c5.184-30.475,13.946-58.045,38.814-69.237c25.132-11.306,51.375,0.795,77.266,17.02
		c6.175,3.86,12.324,7.965,18.438,12.035c6.902,4.601,13.422,8.946,20.003,12.996c2.147,1.316,4.278,2.655,6.408,4
		c0.152,0.093,0.302,0.189,0.454,0.283c16.694,10.507,35.623,22.419,59.688,24.071c14.323,0.982,28.599-1.453,41.775-6.955
		C655.063,107.982,656.13,107.534,657.199,107.052z"/>
	<g>
		
			<line fill="none" stroke="#5799B6" stroke-width="5" stroke-miterlimit="10" x1="292.616" y1="102.477" x2="340.633" y2="209.217"/>
		
			<line fill="none" stroke="#5799B6" stroke-width="5" stroke-miterlimit="10" x1="262.39" y1="116.073" x2="310.406" y2="222.817"/>
		
			<line fill="none" stroke="#5799B6" stroke-width="5" stroke-miterlimit="10" x1="232.158" y1="129.673" x2="280.18" y2="236.411"/>
	</g>
	<g>
		
			<line fill="none" stroke="#5799B6" stroke-width="5" stroke-miterlimit="10" x1="131.781" y1="174.832" x2="179.797" y2="281.568"/>
		
			<line fill="none" stroke="#5799B6" stroke-width="5" stroke-miterlimit="10" x1="101.557" y1="188.428" x2="149.574" y2="295.166"/>
		
			<line fill="none" stroke="#5799B6" stroke-width="5" stroke-miterlimit="10" x1="71.331" y1="202.023" x2="119.348" y2="308.764"/>
	</g>
	<g>
		
			<line fill="none" stroke="#5799B6" stroke-width="5" stroke-miterlimit="10" x1="-37.535" y1="235.313" x2="10.484" y2="342.051"/>
		
			<line fill="none" stroke="#5799B6" stroke-width="5" stroke-miterlimit="10" x1="-67.762" y1="248.906" x2="-19.742" y2="355.649"/>
		
			<line fill="none" stroke="#5799B6" stroke-width="5" stroke-miterlimit="10" x1="-97.988" y1="262.506" x2="-49.969" y2="369.244"/>
	</g>
	<path fill="#579AB6" stroke="#FFFFFF" stroke-width="3" stroke-miterlimit="10" d="M157.498,320.143
		c11.16-5.02,20.188-11.629,27.547-19.35c12.476-12.543,21.145-28.26,24.959-45.422c1.637-5.351,3.031-10.792,4.232-16.254
		c-0.914-0.566-1.816-1.143-2.732-1.703c-6.685-4.107-13.551-8.684-20.197-13.119c-3.562-2.375-7.025-4.664-10.399-6.844
		c-1.638,9.799-3.632,19.336-6.437,28.136l-0.033-0.005c-0.021,0.111-0.049,0.223-0.07,0.334
		c-4.266,13.275-10.409,24.844-20.025,33.066c-4.031,3.274-8.49,6.012-13.256,8.105c-1.596,0.664-3.197,1.258-4.807,1.746l0.047,0.1
		c-6.736,2.268-13.939,3.291-21.289,2.785c-14.818-1.023-27.691-9.118-42.592-18.501c-2.394-1.503-4.786-3.009-7.192-4.484
		c-2.173-1.339-4.387-2.751-6.63-4.196c-3.955-2.555-8.011-5.25-12.231-8.064c-10.309-6.874-21.335-14.221-32.977-20.713
		c-29.375-16.387-62.666-27.311-98.264-11.291c-35.152,15.813-49.442,47.807-56.919,80.963c6.418,4.014,12.826,8.309,19.573,12.844
		c4.68,3.148,9.22,6.166,13.638,9.016c5.188-30.477,13.949-58.05,38.819-69.236c25.127-11.306,51.375,0.795,77.265,17.012
		c6.173,3.869,12.325,7.967,18.435,12.043c6.902,4.6,13.418,8.947,20.005,12.994c2.145,1.318,4.274,2.654,6.408,4.002
		c0.15,0.094,0.303,0.188,0.451,0.275c16.698,10.512,35.623,22.418,59.687,24.078c14.327,0.982,28.597-1.455,41.774-6.955
		C155.358,321.073,156.43,320.619,157.498,320.143z"/>
	<g>
		
			<line fill="none" stroke="#5799B6" stroke-width="5" stroke-miterlimit="10" x1="-204.075" y1="310.701" x2="-156.058" y2="417.44"/>
		
			<line fill="none" stroke="#5799B6" stroke-width="5" stroke-miterlimit="10" x1="-234.301" y1="324.299" x2="-186.284" y2="431.039"/>
		
			<line fill="none" stroke="#5799B6" stroke-width="5" stroke-miterlimit="10" x1="-264.528" y1="337.895" x2="-216.511" y2="444.639"/>
	</g>
	<path fill="#579AB6" stroke="#FFFFFF" stroke-width="3" stroke-miterlimit="10" d="M-178.36,456.012
		c11.16-5.014,20.189-11.629,27.546-19.344c12.478-12.549,21.147-28.266,24.959-45.426c1.639-5.346,3.033-10.793,4.233-16.256
		c-0.914-0.564-1.817-1.137-2.732-1.697c-6.685-4.107-13.55-8.688-20.197-13.119c-3.563-2.375-7.026-4.664-10.4-6.85
		c-1.637,9.801-3.632,19.342-6.436,28.137l-0.034-0.006c-0.02,0.111-0.049,0.223-0.069,0.34
		c-4.266,13.275-10.41,24.844-20.026,33.063c-4.03,3.279-8.49,6.01-13.254,8.104c-1.597,0.67-3.199,1.258-4.808,1.752l0.046,0.1
		c-6.736,2.268-13.938,3.287-21.288,2.779c-14.818-1.018-27.691-9.111-42.592-18.494c-2.393-1.504-4.786-3.01-7.191-4.49
		c-2.174-1.334-4.388-2.748-6.63-4.197c-3.956-2.549-8.012-5.244-12.231-8.063c-10.31-6.869-21.335-14.217-32.977-20.715
		c-29.375-16.385-62.667-27.305-98.265-11.285c-35.152,15.809-49.442,47.805-56.919,80.963c6.419,4.014,12.826,8.309,19.574,12.844
		c4.679,3.145,9.22,6.164,13.635,9.012c5.188-30.473,13.949-58.045,38.818-69.238c25.127-11.305,51.375,0.799,77.265,17.018
		c6.173,3.869,12.325,7.967,18.435,12.043c6.902,4.594,13.419,8.947,20.006,12.988c2.144,1.318,4.273,2.66,6.407,4.002
		c0.15,0.094,0.303,0.188,0.451,0.281c16.699,10.51,35.623,22.418,59.686,24.072c14.327,0.984,28.597-1.449,41.775-6.951
		C-180.498,456.946-179.429,456.494-178.36,456.012z"/>
	<path fill="#579AB6" stroke="#FFFFFF" stroke-width="3" stroke-miterlimit="10" d="M-2.947,392.315
		c11.158-5.012,20.188-11.625,27.546-19.344c12.477-12.545,21.146-28.258,24.957-45.424c1.64-5.346,3.032-10.793,4.232-16.25
		c-0.91-0.572-1.815-1.145-2.729-1.701c-6.685-4.111-13.554-8.691-20.197-13.121c-3.563-2.373-7.023-4.662-10.4-6.844
		c-1.637,9.795-3.632,19.338-6.436,28.137l-0.034-0.006c-0.02,0.111-0.049,0.223-0.069,0.334
		C9.655,331.371,3.511,342.94-6.104,351.156c-4.031,3.281-8.49,6.012-13.256,8.111c-1.595,0.662-3.197,1.254-4.806,1.744l0.046,0.1
		c-6.734,2.268-13.939,3.287-21.288,2.787c-14.818-1.023-27.691-9.117-42.592-18.5c-2.394-1.506-4.786-3.012-7.192-4.49
		c-2.17-1.336-4.387-2.748-6.628-4.195c-3.955-2.553-8.011-5.248-12.231-8.059c-10.309-6.875-21.335-14.225-32.977-20.723
		c-29.375-16.383-62.666-27.302-98.264-11.281c-35.149,15.807-49.442,47.801-56.919,80.961c6.416,4.016,12.826,8.307,19.57,12.844
		c4.683,3.146,9.22,6.162,13.639,9.012c5.188-30.473,13.949-58.047,38.819-69.238c25.127-11.305,51.375,0.801,77.265,17.02
		c6.173,3.867,12.325,7.965,18.435,12.041c6.902,4.594,13.419,8.945,20.005,12.99c2.145,1.324,4.277,2.66,6.408,4.002
		c0.153,0.092,0.303,0.186,0.454,0.279c16.695,10.512,35.62,22.42,59.687,24.074c14.324,0.984,28.597-1.451,41.772-6.953
		C-5.084,393.248-4.016,392.801-2.947,392.315z"/>
	<path fill="#579AB6" stroke="#FFFFFF" stroke-width="3" stroke-miterlimit="10" d="M326.625,252.052
		c11.162-5.021,20.19-11.628,27.549-19.349c12.479-12.544,21.146-28.26,24.959-45.422c1.637-5.352,3.031-10.793,4.235-16.252
		c-0.911-0.568-1.819-1.14-2.735-1.705c-6.685-4.107-13.551-8.684-20.196-13.112c-3.563-2.377-7.023-4.664-10.4-6.851
		c-1.637,9.799-3.631,19.342-6.431,28.135l-0.036-0.004c-0.021,0.113-0.052,0.222-0.069,0.336
		c-4.269,13.277-10.412,24.846-20.027,33.064c-4.033,3.279-8.492,6.01-13.258,8.104c-1.596,0.665-3.197,1.261-4.804,1.751
		l0.047,0.096c-6.737,2.266-13.942,3.289-21.288,2.784c-14.821-1.019-27.694-9.112-42.595-18.493
		c-2.392-1.506-4.786-3.012-7.19-4.492c-2.172-1.334-4.389-2.748-6.63-4.195c-3.955-2.555-8.014-5.25-12.233-8.064
		c-10.307-6.867-21.336-14.221-32.973-20.714c-29.377-16.383-62.668-27.305-98.266-11.29c-35.152,15.813-49.442,47.807-56.919,80.97
		c6.416,4.012,12.826,8.304,19.573,12.841c4.68,3.146,9.22,6.164,13.638,9.012c5.188-30.471,13.949-58.045,38.819-69.236
		c25.127-11.307,51.375,0.795,77.265,17.02c6.176,3.865,12.325,7.965,18.438,12.041c6.901,4.595,13.419,8.945,20.003,12.99
		c2.146,1.316,4.273,2.658,6.407,3.999c0.153,0.093,0.304,0.187,0.451,0.282c16.699,10.508,35.623,22.417,59.687,24.072
		c14.324,0.982,28.6-1.451,41.774-6.953C324.487,252.987,325.559,252.531,326.625,252.052z"/>
	<path fill="#579AB6" stroke="#FFFFFF" stroke-width="2" stroke-miterlimit="10" d="M488.591,179.192
		c11.157-5.02,20.186-11.626,27.546-19.344c12.476-12.546,21.146-28.265,24.954-45.424c1.644-5.354,3.031-10.795,4.235-16.255
		c-0.911-0.568-1.819-1.139-2.729-1.7c-6.685-4.113-13.557-8.688-20.197-13.117c-3.567-2.375-7.028-4.664-10.399-6.852
		c-1.643,9.802-3.632,19.342-6.436,28.139l-0.037-0.008c-0.021,0.114-0.052,0.225-0.069,0.336
		c-4.269,13.279-10.412,24.847-20.024,33.065c-4.033,3.281-8.492,6.013-13.253,8.107c-1.596,0.667-3.197,1.258-4.809,1.748
		l0.047,0.096c-6.737,2.271-13.942,3.289-21.289,2.787c-14.82-1.018-27.688-9.115-42.594-18.496
		c-2.392-1.506-4.786-3.011-7.19-4.489c-2.173-1.336-4.39-2.749-6.63-4.196c-3.955-2.557-8.014-5.252-12.234-8.064
		c-10.306-6.87-21.331-14.224-32.973-20.716c-29.379-16.383-62.665-27.305-98.268-11.29c-35.151,15.815-49.439,47.806-56.919,80.969
		c6.416,4.015,12.826,8.307,19.573,12.842c4.681,3.147,9.22,6.164,13.636,9.012c5.186-30.471,13.947-58.046,38.816-69.238
		c25.133-11.305,51.375,0.796,77.268,17.02c6.176,3.866,12.324,7.966,18.438,12.041c6.901,4.596,13.421,8.946,20.002,12.991
		c2.147,1.316,4.279,2.657,6.408,3.999c0.152,0.094,0.303,0.189,0.456,0.283c16.692,10.508,35.623,22.419,59.687,24.071
		c14.324,0.982,28.6-1.448,41.774-6.952C486.453,180.127,487.52,179.672,488.591,179.192z"/>
</g>
<path fill="#599AB9" d="M0,0v566.929h566.93V0H0z M283.465,500.316c-119.763,0-216.851-97.089-216.851-216.851
	c0-119.763,97.088-216.85,216.851-216.85s216.85,97.087,216.85,216.85C500.314,403.227,403.228,500.316,283.465,500.316z"/>
</svg>
